<svg version="1.1" viewBox="0.0 0.0 512.0 512.0" fill="none" stroke="none" stroke-linecap="square" stroke-miterlimit="10" xmlns:xlink="http://www.w3.org/1999/xlink" xmlns="http://www.w3.org/2000/svg"><clipPath id="g2292460aea6_0_57.0"><path d="m0 0l512.0 0l0 512.0l-512.0 0l0 -512.0z" clip-rule="nonzero"/></clipPath><g clip-path="url(#g2292460aea6_0_57.0)"><path fill="#373647" d="m0 0l512.0 0l0 512.0l-512.0 0z" fill-rule="evenodd"/><path fill="#ffffff" d="m281.01007 312.12183l0 0c0 -17.499146 14.185883 -31.685028 31.685059 -31.685028l0 0c8.403381 0 16.462585 3.3382263 22.404694 9.280334c5.942108 5.9420776 9.280334 14.001312 9.280334 22.404694l0 0c0 17.499176 -14.185883 31.685059 -31.685028 31.685059l0 0c-17.499176 0 -31.685059 -14.185883 -31.685059 -31.685059zm12.623322 0l0 0c0 10.527496 8.534241 19.061737 19.061737 19.061737c10.527496 0 19.061707 -8.534241 19.061707 -19.061737c0 -10.527496 -8.53421 -19.061707 -19.061707 -19.061707l0 0c-10.527496 0 -19.061737 8.53421 -19.061737 19.061707z" fill-rule="evenodd"/><path stroke="#ffffff" stroke-width="2.0" stroke-linejoin="round" stroke-linecap="butt" d="m281.01007 312.12183l0 0c0 -17.499146 14.185883 -31.685028 31.685059 -31.685028l0 0c8.403381 0 16.462585 3.3382263 22.404694 9.280334c5.942108 5.9420776 9.280334 14.001312 9.280334 22.404694l0 0c0 17.499176 -14.185883 31.685059 -31.685028 31.685059l0 0c-17.499176 0 -31.685059 -14.185883 -31.685059 -31.685059zm12.623322 0l0 0c0 10.527496 8.534241 19.061737 19.061737 19.061737c10.527496 0 19.061707 -8.534241 19.061707 -19.061737c0 -10.527496 -8.53421 -19.061707 -19.061707 -19.061707l0 0c-10.527496 0 -19.061737 8.53421 -19.061737 19.061707z" fill-rule="evenodd"/><path fill="#ffffff" d="m437.41403 293.2568l9.564789 -9.969971l21.191895 20.330597l21.191925 -20.330597l9.564789 9.969971l-20.778137 19.933655l20.778137 19.933655l-9.564789 9.970001l-21.191925 -20.330627l-21.191895 20.330627l-9.564789 -9.970001l20.778107 -19.933655z" fill-rule="evenodd"/><path stroke="#ffffff" stroke-width="1.0" stroke-linejoin="round" stroke-linecap="butt" d="m437.41403 293.2568l9.564789 -9.969971l21.191895 20.330597l21.191925 -20.330597l9.564789 9.969971l-20.778137 19.933655l20.778137 19.933655l-9.564789 9.970001l-21.191925 -20.330627l-21.191895 20.330627l-9.564789 -9.970001l20.778107 -19.933655z" fill-rule="evenodd"/><path fill="#ffffff" d="m360.20718 293.2568l9.564789 -9.969971l21.191925 20.330597l21.191925 -20.330597l9.564789 9.969971l-20.778137 19.933655l20.778137 19.933655l-9.564789 9.970001l-21.191925 -20.330627l-21.191925 20.330627l-9.564789 -9.970001l20.778137 -19.933655z" fill-rule="evenodd"/><path stroke="#ffffff" stroke-width="1.0" stroke-linejoin="round" stroke-linecap="butt" d="m360.20718 293.2568l9.564789 -9.969971l21.191925 20.330597l21.191925 -20.330597l9.564789 9.969971l-20.778137 19.933655l20.778137 19.933655l-9.564789 9.970001l-21.191925 -20.330627l-21.191925 20.330627l-9.564789 -9.970001l20.778137 -19.933655z" fill-rule="evenodd"/><path fill="#ffffff" d="m283.01263 370.45514l9.564789 -9.970001l21.191925 20.330627l21.191925 -20.330627l9.564789 9.970001l-20.778137 19.933655l20.778137 19.933624l-9.564789 9.970001l-21.191925 -20.330627l-21.191925 20.330627l-9.564789 -9.970001l20.778137 -19.933624z" fill-rule="evenodd"/><path stroke="#ffffff" stroke-width="1.0" stroke-linejoin="round" stroke-linecap="butt" d="m283.01263 370.45514l9.564789 -9.970001l21.191925 20.330627l21.191925 -20.330627l9.564789 9.970001l-20.778137 19.933655l20.778137 19.933624l-9.564789 9.970001l-21.191925 -20.330627l-21.191925 20.330627l-9.564789 -9.970001l20.778137 -19.933624z" fill-rule="evenodd"/><path fill="#ffffff" d="m281.5884 447.6514l9.564789 -9.970001l21.191925 20.330627l21.191925 -20.330627l9.564789 9.970001l-20.778137 19.933655l20.778137 19.933655l-9.564789 9.969971l-21.191925 -20.330627l-21.191925 20.330627l-9.564789 -9.969971l20.778137 -19.933655z" fill-rule="evenodd"/><path stroke="#ffffff" stroke-width="1.0" stroke-linejoin="round" stroke-linecap="butt" d="m281.5884 447.6514l9.564789 -9.970001l21.191925 20.330627l21.191925 -20.330627l9.564789 9.970001l-20.778137 19.933655l20.778137 19.933655l-9.564789 9.969971l-21.191925 -20.330627l-21.191925 20.330627l-9.564789 -9.969971l20.778137 -19.933655z" fill-rule="evenodd"/><path fill="#ffffff" d="m205.8181 370.45514l9.564774 -9.970001l21.191925 20.330627l21.191925 -20.330627l9.564789 9.970001l-20.778137 19.933655l20.778137 19.933624l-9.564789 9.970001l-21.191925 -20.330627l-21.191925 20.330627l-9.564774 -9.970001l20.778122 -19.933624z" fill-rule="evenodd"/><path stroke="#ffffff" stroke-width="1.0" stroke-linejoin="round" stroke-linecap="butt" d="m205.8181 370.45514l9.564774 -9.970001l21.191925 20.330627l21.191925 -20.330627l9.564789 9.970001l-20.778137 19.933655l20.778137 19.933624l-9.564789 9.970001l-21.191925 -20.330627l-21.191925 20.330627l-9.564774 -9.970001l20.778122 -19.933624z" fill-rule="evenodd"/><path fill="#ffffff" d="m360.20718 444.88684l9.564789 -9.969971l21.191925 20.330627l21.191925 -20.330627l9.564789 9.969971l-20.778137 19.933655l20.778137 19.933655l-9.564789 9.970001l-21.191925 -20.330627l-21.191925 20.330627l-9.564789 -9.970001l20.778137 -19.933655z" fill-rule="evenodd"/><path stroke="#ffffff" stroke-width="1.0" stroke-linejoin="round" stroke-linecap="butt" d="m360.20718 444.88684l9.564789 -9.969971l21.191925 20.330627l21.191925 -20.330627l9.564789 9.969971l-20.778137 19.933655l20.778137 19.933655l-9.564789 9.970001l-21.191925 -20.330627l-21.191925 20.330627l-9.564789 -9.970001l20.778137 -19.933655z" fill-rule="evenodd"/><path fill="#ffffff" d="m437.41403 216.22426l9.564789 -9.970001l21.191895 20.330627l21.191925 -20.330627l9.564789 9.970001l-20.778137 19.933655l20.778137 19.93364l-9.564789 9.970001l-21.191925 -20.330627l-21.191895 20.330627l-9.564789 -9.970001l20.778107 -19.93364z" fill-rule="evenodd"/><path stroke="#ffffff" stroke-width="1.0" stroke-linejoin="round" stroke-linecap="butt" d="m437.41403 216.22426l9.564789 -9.970001l21.191895 20.330627l21.191925 -20.330627l9.564789 9.970001l-20.778137 19.933655l20.778137 19.93364l-9.564789 9.970001l-21.191925 -20.330627l-21.191895 20.330627l-9.564789 -9.970001l20.778107 -19.93364z" fill-rule="evenodd"/><path fill="#ffffff" d="m205.8181 293.28137l9.564774 -9.970001l21.191925 20.330627l21.191925 -20.330627l9.564789 9.970001l-20.778137 19.933655l20.778137 19.933655l-9.564789 9.970001l-21.191925 -20.330627l-21.191925 20.330627l-9.564774 -9.970001l20.778122 -19.933655z" fill-rule="evenodd"/><path stroke="#ffffff" stroke-width="1.0" stroke-linejoin="round" stroke-linecap="butt" d="m205.8181 293.28137l9.564774 -9.970001l21.191925 20.330627l21.191925 -20.330627l9.564789 9.970001l-20.778137 19.933655l20.778137 19.933655l-9.564789 9.970001l-21.191925 -20.330627l-21.191925 20.330627l-9.564774 -9.970001l20.778122 -19.933655z" fill-rule="evenodd"/><path fill="#ffffff" d="m281.58838 216.0585l9.564758 -9.969986l21.191925 20.330612l21.191925 -20.330612l9.564789 9.969986l-20.778137 19.933655l20.778137 19.933655l-9.564789 9.970001l-21.191925 -20.330643l-21.191925 20.330643l-9.564758 -9.970001l20.778107 -19.933655z" fill-rule="evenodd"/><path stroke="#ffffff" stroke-width="1.0" stroke-linejoin="round" stroke-linecap="butt" d="m281.58838 216.0585l9.564758 -9.969986l21.191925 20.330612l21.191925 -20.330612l9.564789 9.969986l-20.778137 19.933655l20.778137 19.933655l-9.564789 9.970001l-21.191925 -20.330643l-21.191925 20.330643l-9.564758 -9.970001l20.778107 -19.933655z" fill-rule="evenodd"/><path fill="#ffffff" d="m437.41403 370.45514l9.564789 -9.970001l21.191895 20.330627l21.191925 -20.330627l9.564789 9.970001l-20.778137 19.933655l20.778137 19.933624l-9.564789 9.970001l-21.191925 -20.330627l-21.191895 20.330627l-9.564789 -9.970001l20.778107 -19.933624z" fill-rule="evenodd"/><path stroke="#ffffff" stroke-width="1.0" stroke-linejoin="round" stroke-linecap="butt" d="m437.41403 370.45514l9.564789 -9.970001l21.191895 20.330627l21.191925 -20.330627l9.564789 9.970001l-20.778137 19.933655l20.778137 19.933624l-9.564789 9.970001l-21.191925 -20.330627l-21.191895 20.330627l-9.564789 -9.970001l20.778107 -19.933624z" fill-rule="evenodd"/><path fill="#000000" fill-opacity="0.0" d="m187.33333 313.1916l-167.62204 0" fill-rule="evenodd"/><path stroke="#ffffff" stroke-width="12.0" stroke-linejoin="round" stroke-linecap="butt" d="m187.33333 313.1916l-167.62204 0" fill-rule="evenodd"/><path fill="#000000" fill-opacity="0.0" d="m187.33333 236.04199l-167.62204 0" fill-rule="evenodd"/><path stroke="#ffffff" stroke-width="12.0" stroke-linejoin="round" stroke-linecap="butt" d="m187.33333 236.04199l-167.62204 0" fill-rule="evenodd"/><path fill="#000000" fill-opacity="0.0" d="m187.33333 390.38846l-167.62204 0" fill-rule="evenodd"/><path stroke="#ffffff" stroke-width="12.0" stroke-linejoin="round" stroke-linecap="butt" d="m187.33333 390.38846l-167.62204 0" fill-rule="evenodd"/><path fill="#000000" fill-opacity="0.0" d="m187.33333 467.5853l-167.62204 0" fill-rule="evenodd"/><path stroke="#ffffff" stroke-width="12.0" stroke-linejoin="round" stroke-linecap="butt" d="m187.33333 467.5853l-167.62204 0" fill-rule="evenodd"/><path fill="#000000" fill-opacity="0.0" d="m391.00262 196.13124l0 -167.62206" fill-rule="evenodd"/><path stroke="#ffffff" stroke-width="12.0" stroke-linejoin="round" stroke-linecap="butt" d="m391.00262 196.13124l0 -167.62206" fill-rule="evenodd"/><path fill="#000000" fill-opacity="0.0" d="m468.15222 196.13124l0 -167.62206" fill-rule="evenodd"/><path stroke="#ffffff" stroke-width="12.0" stroke-linejoin="round" stroke-linecap="butt" d="m468.15222 196.13124l0 -167.62206" fill-rule="evenodd"/><path fill="#000000" fill-opacity="0.0" d="m313.8058 196.13124l0 -167.62206" fill-rule="evenodd"/><path stroke="#ffffff" stroke-width="12.0" stroke-linejoin="round" stroke-linecap="butt" d="m313.8058 196.13124l0 -167.62206" fill-rule="evenodd"/><path fill="#000000" fill-opacity="0.0" d="m236.60892 196.13124l0 -167.62206" fill-rule="evenodd"/><path stroke="#ffffff" stroke-width="12.0" stroke-linejoin="round" stroke-linecap="butt" d="m236.60892 196.13124l0 -167.62206" fill-rule="evenodd"/></g></svg>