<?xml version="1.0" encoding="UTF-8"?>
<svg width="1200pt" height="1200pt" version="1.1" viewBox="0 0 1200 1200" xmlns="http://www.w3.org/2000/svg">
 <path d="m1140 1072.5c0 37.273-30.191 67.5-67.5 67.5s-67.5-30.227-67.5-67.5c0-480.67-433.02-533.36-713.72-539.17l221.45 221.45c26.363 26.363 26.363 69.086 0 95.449-13.188 13.188-30.457 19.777-47.723 19.777-17.27 0-34.535-6.5898-47.723-19.777l-337.5-337.5c-26.363-26.363-26.363-69.086 0-95.449l337.5-337.5c26.363-26.363 69.086-26.363 95.449 0 26.363 26.363 26.363 69.086 0 95.449l-223.89 223.88c390.19 12.191 851.16 113.96 851.16 673.39z" fill="#fff"/>
</svg>
