<svg version="1.1" viewBox="0.0 0.0 140.0 140.0" fill="none" stroke="none" stroke-linecap="square" stroke-miterlimit="10" xmlns:xlink="http://www.w3.org/1999/xlink" xmlns="http://www.w3.org/2000/svg"><clipPath id="g134be435e2c_0_0.0"><path d="m0 0l140.0 0l0 140.0l-140.0 0l0 -140.0z" clip-rule="nonzero"/></clipPath><g clip-path="url(#g134be435e2c_0_0.0)"><path fill="#fff" fill-opacity="0.0" d="m0 0l140.0 0l0 140.0l-140.0 0z" fill-rule="evenodd"/><path fill="#fff" d="m14.324008 48.744957l45.255894 0l-45.255894 -45.255894z" fill-rule="evenodd"/><path fill="#fff" fill-opacity="0.0" d="m15.008652 71.28258c0.46181297 26.725441 19.960514 49.30091 46.334457 53.645744c26.373947 4.3448257 52.08387 -10.7829895 61.094093 -35.948013c9.010231 -25.165024 -1.2549133 -53.17356 -24.39289 -66.55626c-23.137978 -13.382693 -52.534565 -8.313961 -69.85465 12.04475l42.148537 35.85768z" fill-rule="evenodd"/><path fill="#fff" fill-opacity="0.0" d="m15.008652 71.28258c0.46181297 26.725441 19.960514 49.30091 46.334457 53.645744c26.373947 4.3448257 52.08387 -10.7829895 61.094093 -35.948013c9.010231 -25.165024 -1.2549133 -53.17356 -24.39289 -66.55626c-23.137978 -13.382693 -52.534565 -8.313961 -69.85465 12.04475" fill-rule="evenodd"/><path stroke="#fff" stroke-width="24.0" stroke-linejoin="round" stroke-linecap="butt" d="m15.008652 71.28258c0.46181297 26.725441 19.960514 49.30091 46.334457 53.645744c26.373947 4.3448257 52.08387 -10.7829895 61.094093 -35.948013c9.010231 -25.165024 -1.2549133 -53.17356 -24.39289 -66.55626c-23.137978 -13.382693 -52.534565 -8.313961 -69.85465 12.04475" fill-rule="evenodd"/></g></svg>